{
  "accessors": [
    {
      "bufferView": 2,
      "componentType": 5126,
      "count": 8069,
      "max": [
        0.56610000133514404,
        0.44600000977516174,
        0.44380000233650208
      ],
      "min": [
        -0.78769999742507935,
        -0.38240000605583191,
        -0.43950000405311584
      ],
      "type": "VEC3"
    },
    {
      "bufferView": 2,
      "byteOffset": 96828,
      "componentType": 5126,
      "count": 8069,
      "max": [
        0.99993807077407837,
        0.99998331069946289,
        0.99998438358306885
      ],
      "min": [
        -0.99996429681777954,
        -0.99983787536621094,
        -0.99998271465301514
      ],
      "type": "VEC3"
    },
    {
      "bufferView": 3,
      "componentType": 5126,
      "count": 8069,
      "max": [
        0.99997204542160034,
        0.99934172630310059,
        0.9999697208404541,
        1
      ],
      "min": [
        -0.99919086694717407,
        -0.99989330768585205,
        -0.99972808361053467,
        -1
      ],
      "type": "VEC4"
    },
    {
      "bufferView": 1,
      "componentType": 5126,
      "count": 8069,
      "max": [
        0.82086998224258423,
        0.99000000953674316
      ],
      "min": [
        0.0099999997764825821,
        0.13286000490188599
      ],
      "type": "VEC2"
    },
    {
      "bufferView": 0,
      "componentType": 5125,
      "count": 45498,
      "max": [
        8068
      ],
      "min": [
        0
      ],
      "type": "SCALAR"
    },
    {
      "bufferView": 2,
      "byteOffset": 193656,
      "componentType": 5126,
      "count": 98,
      "max": [
        -0.43779999017715454,
        -0.057799998670816422,
        0.23790000379085541
      ],
      "min": [
        -0.69270002841949463,
        -0.33340001106262207,
        -0.24060000479221344
      ],
      "type": "VEC3"
    },
    {
      "bufferView": 2,
      "byteOffset": 194832,
      "componentType": 5126,
      "count": 98,
      "max": [
        0.98162096738815308,
        0.98735529184341431,
        0.99035191535949707
      ],
      "min": [
        -0.98173290491104126,
        -0.98734104633331299,
        -0.98976576328277588
      ],
      "type": "VEC3"
    },
    {
      "bufferView": 3,
      "byteOffset": 129104,
      "componentType": 5126,
      "count": 98,
      "max": [
        0.54417306184768677,
        0.98847121000289917,
        0.99446076154708862,
        1
      ],
      "min": [
        -0.98480850458145142,
        -0.5816723108291626,
        -0.98776149749755859,
        1
      ],
      "type": "VEC4"
    },
    {
      "bufferView": 1,
      "byteOffset": 64552,
      "componentType": 5126,
      "count": 98,
      "max": [
        0.99000000953674316,
        0.57315999269485474
      ],
      "min": [
        0.37110999226570129,
        0.083520002663135529
      ],
      "type": "VEC2"
    },
    {
      "bufferView": 0,
      "byteOffset": 181992,
      "componentType": 5125,
      "count": 504,
      "max": [
        97
      ],
      "min": [
        0
      ],
      "type": "SCALAR"
    }
  ],
  "asset": {
    "extras": {
      "author": "Animium 3d model (https://sketchfab.com/pelister)",
      "license": "CC-BY-4.0 (http://creativecommons.org/licenses/by/4.0/)",
      "source": "https://sketchfab.com/models/ddd382fba03b4732968dc43256a69201",
      "title": "Cartoon Turtle"
    },
    "generator": "Sketchfab-3.19.4",
    "version": "2.0"
  },
  "bufferViews": [
    {
      "buffer": 0,
      "byteLength": 184008,
      "byteOffset": 0,
      "name": "floatBufferViews",
      "target": 34963
    },
    {
      "buffer": 0,
      "byteLength": 65336,
      "byteOffset": 184008,
      "byteStride": 8,
      "name": "floatBufferViews",
      "target": 34962
    },
    {
      "buffer": 0,
      "byteLength": 196008,
      "byteOffset": 249344,
      "byteStride": 12,
      "name": "floatBufferViews",
      "target": 34962
    },
    {
      "buffer": 0,
      "byteLength": 130672,
      "byteOffset": 445352,
      "byteStride": 16,
      "name": "floatBufferViews",
      "target": 34962
    }
  ],
  "buffers": [
    {
      "byteLength": 576024,
      "uri": "scene.bin"
    }
  ],
  "images": [
    {
      "uri": "textures/body_normal.png"
    },
    {
      "uri": "textures/body_baseColor.png"
    },
    {
      "uri": "textures/eyes_baseColor.png"
    }
  ],
  "materials": [
    {
      "doubleSided": true,
      "emissiveFactor": [
        0,
        0,
        0
      ],
      "name": "body",
      "normalTexture": {
        "index": 0,
        "scale": 1,
        "texCoord": 0
      },
      "pbrMetallicRoughness": {
        "baseColorFactor": [
          1,
          1,
          1,
          1
        ],
        "baseColorTexture": {
          "index": 1,
          "texCoord": 0
        },
        "metallicFactor": 0.26000000000000001,
        "roughnessFactor": 0.31
      }
    },
    {
      "doubleSided": true,
      "emissiveFactor": [
        0,
        0,
        0
      ],
      "name": "eyes",
      "pbrMetallicRoughness": {
        "baseColorFactor": [
          1,
          1,
          1,
          1
        ],
        "baseColorTexture": {
          "index": 2,
          "texCoord": 0
        },
        "metallicFactor": 0.79000000000000004,
        "roughnessFactor": 0.10000000000000001
      }
    }
  ],
  "meshes": [
    {
      "primitives": [
        {
          "attributes": {
            "NORMAL": 1,
            "POSITION": 0,
            "TANGENT": 2,
            "TEXCOORD_0": 3
          },
          "indices": 4,
          "material": 0,
          "mode": 4
        }
      ]
    },
    {
      "primitives": [
        {
          "attributes": {
            "NORMAL": 6,
            "POSITION": 5,
            "TANGENT": 7,
            "TEXCOORD_0": 8
          },
          "indices": 9,
          "material": 1,
          "mode": 4
        }
      ]
    }
  ],
  "nodes": [
    {
      "children": [
        1
      ],
      "name": "RootNode (gltf orientation matrix)",
      "rotation": [
        -0.70710678118654746,
        -0,
        -0,
        0.70710678118654757
      ]
    },
    {
      "children": [
        2
      ],
      "matrix": [
        1,
        0,
        0,
        0,
        0,
        0,
        -1,
        0,
        0,
        1,
        0,
        0,
        0,
        0.029649734497070312,
        0.033950686454772949,
        1
      ],
      "name": "RootNode (model correction matrix)"
    },
    {
      "children": [
        3,
        4
      ],
      "name": "cartoon_turtle.obj.cleaner"
    },
    {
      "mesh": 0,
      "name": ""
    },
    {
      "mesh": 1,
      "name": ""
    }
  ],
  "samplers": [
    {
      "magFilter": 9729,
      "minFilter": 9987,
      "wrapS": 10497,
      "wrapT": 10497
    }
  ],
  "scene": 0,
  "scenes": [
    {
      "name": "OSG_Scene",
      "nodes": [
        0
      ]
    }
  ],
  "textures": [
    {
      "sampler": 0,
      "source": 0
    },
    {
      "sampler": 0,
      "source": 1
    },
    {
      "sampler": 0,
      "source": 2
    }
  ]
}

