{
  "accessors": [
    {
      "bufferView": 2,
      "componentType": 5126,
      "count": 1118,
      "max": [
        0.59059113264083862,
        0.69224691390991211,
        0.3622620701789856
      ],
      "min": [
        -0.59059113264083862,
        0.41240614652633667,
        -0.19324781000614166
      ],
      "type": "VEC3"
    },
    {
      "bufferView": 2,
      "byteOffset": 13416,
      "componentType": 5126,
      "count": 1118,
      "max": [
        0.9999469518661499,
        1,
        1
      ],
      "min": [
        -0.9999469518661499,
        -1,
        -1
      ],
      "type": "VEC3"
    },
    {
      "bufferView": 3,
      "componentType": 5126,
      "count": 1118,
      "max": [
        1,
        0.043785285204648972,
        0.99999994039535522,
        1
      ],
      "min": [
        -1,
        -0.043785333633422852,
        -0.99998903274536133,
        -1
      ],
      "type": "VEC4"
    },
    {
      "bufferView": 1,
      "componentType": 5126,
      "count": 1118,
      "max": [
        1.0000002384185791,
        1
      ],
      "min": [
        0,
        0
      ],
      "type": "VEC2"
    },
    {
      "bufferView": 0,
      "componentType": 5125,
      "count": 5760,
      "max": [
        1117
      ],
      "min": [
        0
      ],
      "type": "SCALAR"
    },
    {
      "bufferView": 2,
      "byteOffset": 26832,
      "componentType": 5126,
      "count": 8581,
      "max": [
        1.5660500526428223,
        1.783750057220459,
        1.781000018119812
      ],
      "min": [
        -1.5645300149917603,
        -0.95433300733566284,
        -2.7994999885559082
      ],
      "type": "VEC3"
    },
    {
      "bufferView": 2,
      "byteOffset": 129804,
      "componentType": 5126,
      "count": 8581,
      "max": [
        0.99998635053634644,
        0.9978824257850647,
        0.99980127811431885
      ],
      "min": [
        -0.99987953901290894,
        -0.9999997615814209,
        -0.999919593334198
      ],
      "type": "VEC3"
    },
    {
      "bufferView": 3,
      "byteOffset": 17888,
      "componentType": 5126,
      "count": 8581,
      "max": [
        0.99983751773834229,
        0.90746819972991943,
        0.99995803833007812,
        1
      ],
      "min": [
        -0.99998354911804199,
        -0.98564273118972778,
        -0.99930614233016968,
        1
      ],
      "type": "VEC4"
    },
    {
      "bufferView": 1,
      "byteOffset": 8944,
      "componentType": 5126,
      "count": 8581,
      "max": [
        0.99228590726852417,
        0.99973499774932861
      ],
      "min": [
        0.00026498088845983148,
        0.00026498088845983148
      ],
      "type": "VEC2"
    },
    {
      "bufferView": 1,
      "byteOffset": 77592,
      "componentType": 5126,
      "count": 8581,
      "max": [
        0.99228590726852417,
        0.99973499774932861
      ],
      "min": [
        0.00026498088845983148,
        0.00026498088845983148
      ],
      "type": "VEC2"
    },
    {
      "bufferView": 0,
      "byteOffset": 23040,
      "componentType": 5125,
      "count": 47991,
      "max": [
        8580
      ],
      "min": [
        0
      ],
      "type": "SCALAR"
    }
  ],
  "asset": {
    "extras": {
      "author": "ErickJohnP (https://sketchfab.com/ErickJohnP)",
      "license": "CC-BY-4.0 (http://creativecommons.org/licenses/by/4.0/)",
      "source": "https://sketchfab.com/3d-models/fish-83036df81d05423dab94d4d12b3166e5",
      "title": "Fish"
    },
    "generator": "Sketchfab-4.96.0",
    "version": "2.0"
  },
  "bufferViews": [
    {
      "buffer": 0,
      "byteLength": 215004,
      "byteOffset": 0,
      "name": "floatBufferViews",
      "target": 34963
    },
    {
      "buffer": 0,
      "byteLength": 146240,
      "byteOffset": 215004,
      "byteStride": 8,
      "name": "floatBufferViews",
      "target": 34962
    },
    {
      "buffer": 0,
      "byteLength": 232776,
      "byteOffset": 361244,
      "byteStride": 12,
      "name": "floatBufferViews",
      "target": 34962
    },
    {
      "buffer": 0,
      "byteLength": 155184,
      "byteOffset": 594020,
      "byteStride": 16,
      "name": "floatBufferViews",
      "target": 34962
    }
  ],
  "buffers": [
    {
      "byteLength": 749204,
      "uri": "scene.bin"
    }
  ],
  "images": [
    {
      "uri": "textures/Default_OBJ.001_metallicRoughness.png"
    },
    {
      "uri": "textures/Default_OBJ.001_baseColor.png"
    },
    {
      "uri": "textures/Default_OBJ.001_normal.png"
    },
    {
      "uri": "textures/Eyes_baseColor.png"
    }
  ],
  "materials": [
    {
      "doubleSided": true,
      "emissiveFactor": [
        0,
        0,
        0
      ],
      "name": "Eyes",
      "pbrMetallicRoughness": {
        "baseColorFactor": [
          1,
          1,
          1,
          1
        ],
        "baseColorTexture": {
          "index": 3,
          "texCoord": 0
        },
        "metallicFactor": 0,
        "roughnessFactor": 0.15901471980000001
      }
    },
    {
      "doubleSided": true,
      "emissiveFactor": [
        0,
        0,
        0
      ],
      "name": "Default_OBJ.001",
      "normalTexture": {
        "index": 2,
        "scale": 0.29999999999999999,
        "texCoord": 0
      },
      "occlusionTexture": {
        "index": 0,
        "strength": 0.5,
        "texCoord": 0
      },
      "pbrMetallicRoughness": {
        "baseColorFactor": [
          1,
          1,
          1,
          1
        ],
        "baseColorTexture": {
          "index": 1,
          "texCoord": 0
        },
        "metallicFactor": 0,
        "roughnessFactor": 0.40000000000000002
      }
    }
  ],
  "meshes": [
    {
      "name": "Eyes_Eyes_0",
      "primitives": [
        {
          "attributes": {
            "NORMAL": 1,
            "POSITION": 0,
            "TANGENT": 2,
            "TEXCOORD_0": 3
          },
          "indices": 4,
          "material": 0,
          "mode": 4
        }
      ]
    },
    {
      "name": "Fish_Low_Default OBJ.001_0",
      "primitives": [
        {
          "attributes": {
            "NORMAL": 6,
            "POSITION": 5,
            "TANGENT": 7,
            "TEXCOORD_0": 8,
            "TEXCOORD_1": 9
          },
          "indices": 10,
          "material": 1,
          "mode": 4
        }
      ]
    }
  ],
  "nodes": [
    {
      "children": [
        1
      ],
      "name": "RootNode (gltf orientation matrix)",
      "rotation": [
        -0.70710678118654746,
        -0,
        -0,
        0.70710678118654757
      ]
    },
    {
      "children": [
        2
      ],
      "name": "RootNode (model correction matrix)"
    },
    {
      "children": [
        3
      ],
      "matrix": [
        1,
        0,
        0,
        0,
        0,
        0,
        1,
        0,
        0,
        -1,
        0,
        0,
        0,
        0,
        0,
        1
      ],
      "name": "8c70f6bfe6d44d5d8e4a75cfa4999d0d.fbx"
    },
    {
      "children": [
        4,
        6
      ],
      "name": "RootNode"
    },
    {
      "children": [
        5
      ],
      "matrix": [
        -139.07353210448161,
        -1.3757748059704744e-12,
        5.4157232966702709e-05,
        0,
        9.7001317510119977e-05,
        1.880617709616776e-05,
        249.09536743162101,
        0,
        -4.9305270546418709e-12,
        125.48298645019494,
        -9.4737019262943906e-06,
        0,
        2.9103830456733704e-09,
        0,
        -2.9802322387695312e-06,
        1
      ],
      "name": "Eyes"
    },
    {
      "mesh": 0,
      "name": "Eyes_Eyes_0"
    },
    {
      "children": [
        7
      ],
      "matrix": [
        100,
        0,
        0,
        0,
        0,
        99.999999999998664,
        1.6292067073209114e-05,
        0,
        0,
        -1.6292067073209114e-05,
        99.999999999998664,
        0,
        0,
        0,
        0,
        1
      ],
      "name": "Fish_Low"
    },
    {
      "mesh": 1,
      "name": "Fish_Low_Default OBJ.001_0"
    }
  ],
  "samplers": [
    {
      "magFilter": 9729,
      "minFilter": 9987,
      "wrapS": 10497,
      "wrapT": 10497
    }
  ],
  "scene": 0,
  "scenes": [
    {
      "name": "OSG_Scene",
      "nodes": [
        0
      ]
    }
  ],
  "textures": [
    {
      "sampler": 0,
      "source": 0
    },
    {
      "sampler": 0,
      "source": 1
    },
    {
      "sampler": 0,
      "source": 2
    },
    {
      "sampler": 0,
      "source": 3
    }
  ]
}

